M48
;DRILL file {KiCad 4.0.6} date Sunday, April 23, 2017 'PMt' 08:37:33 PM
;FORMAT={-:-/ absolute / inch / decimal}
FMAT,2
INCH,TZ
T1C0.031
T2C0.039
%
G90
G05
M72
T1
X6.Y-4.3
X6.Y-4.4
X6.Y-4.5
X6.Y-4.6
X6.2Y-4.85
X6.2984Y-4.85
X6.3Y-4.3
X6.3Y-4.4
X6.3Y-4.5
X6.3Y-4.6
X6.45Y-4.6
X6.5484Y-4.6
T2
X5.75Y-4.5
X5.75Y-4.6
X5.75Y-4.75
X6.Y-4.1
X6.05Y-4.75
X6.3Y-4.1
X6.45Y-4.1
X6.45Y-4.4
T0
M30
